<svg 
 xmlns="http://www.w3.org/2000/svg"
 xmlns:xlink="http://www.w3.org/1999/xlink"
 width="19px" height="16px">
<path fill-rule="evenodd"  fill="rgb(255, 255, 255)"
 d="M18.737,6.700 L9.883,0.111 C9.653,-0.060 9.332,-0.060 9.102,0.111 L0.249,6.700 C-0.035,6.912 -0.091,7.310 0.125,7.588 C0.229,7.723 0.381,7.810 0.552,7.833 C0.581,7.837 0.611,7.839 0.641,7.839 C0.781,7.839 0.916,7.795 1.030,7.710 L2.302,6.763 L2.302,15.360 C2.302,15.709 2.592,15.993 2.948,15.993 L6.897,15.993 L6.897,12.215 C6.897,11.141 7.785,10.271 8.880,10.271 L10.083,10.271 C11.178,10.271 12.065,11.141 12.065,12.215 L12.065,15.993 L16.037,15.993 C16.393,15.993 16.683,15.709 16.683,15.360 L16.683,6.763 L17.956,7.710 C18.069,7.794 18.204,7.839 18.346,7.839 C18.547,7.839 18.740,7.745 18.861,7.588 C19.076,7.310 19.021,6.912 18.737,6.700 Z"/>
</svg>